<svg width="21" height="23" viewBox="0 0 21 23" fill="none" xmlns="http://www.w3.org/2000/svg">
<path d="M1 3.33333C1 2.71449 1.24583 2.121 1.68342 1.68342C2.121 1.24583 2.71449 1 3.33333 1H17.3333C17.9522 1 18.5457 1.24583 18.9832 1.68342C19.4208 2.121 19.6667 2.71449 19.6667 3.33333V19.6667C19.6667 20.2855 19.4208 20.879 18.9832 21.3166C18.5457 21.7542 17.9522 22 17.3333 22H3.33333C2.71449 22 2.121 21.7542 1.68342 21.3166C1.24583 20.879 1 20.2855 1 19.6667V3.33333Z" stroke="#F2994A" stroke-width="2" stroke-linecap="round" stroke-linejoin="round"/>
<path d="M5.66669 13.8333V13.845M10.3334 13.8333V13.845M15 13.8333V13.845M5.66669 17.3333V17.345M10.3334 17.3333V17.345M15 17.3333V17.345M5.66669 6.83332C5.66669 6.5239 5.7896 6.22716 6.0084 6.00837C6.22719 5.78957 6.52393 5.66666 6.83335 5.66666H13.8334C14.1428 5.66666 14.4395 5.78957 14.6583 6.00837C14.8771 6.22716 15 6.5239 15 6.83332V7.99999C15 8.30941 14.8771 8.60615 14.6583 8.82495C14.4395 9.04374 14.1428 9.16666 13.8334 9.16666H6.83335C6.52393 9.16666 6.22719 9.04374 6.0084 8.82495C5.7896 8.60615 5.66669 8.30941 5.66669 7.99999V6.83332Z" stroke="#F2994A" stroke-width="2" stroke-linecap="round" stroke-linejoin="round"/>
</svg>
