<svg width="23" height="24" viewBox="0 0 23 24" fill="none" xmlns="http://www.w3.org/2000/svg">
<path d="M8.94444 0L8.80247 0.75L8.26296 3.49038C7.39691 3.83654 6.61605 4.32332 5.90617 4.90385L3.26543 3.98077L2.55556 3.75L2.18642 4.41346L0.369136 7.58654L0 8.25L0.539506 8.74039L2.58395 10.5577C2.50941 11.03 2.41358 11.5024 2.41358 12C2.41358 12.4976 2.50941 12.97 2.58395 13.4423L0.539506 15.2596L0 15.75L0.369136 16.4135L2.18642 19.5865L2.55556 20.25L3.26543 20.0192L5.90617 19.0962C6.61605 19.6767 7.39691 20.1635 8.26296 20.5096L8.80247 23.25L8.94444 24H14.0556L14.1975 23.25L14.737 20.5096C15.6031 20.1635 16.384 19.6767 17.0938 19.0962L19.7346 20.0192L20.4444 20.25L20.8136 19.5865L22.6309 16.4135L23 15.75L22.4605 15.2596L20.416 13.4423C20.4906 12.97 20.5864 12.4976 20.5864 12C20.5864 11.5024 20.4906 11.03 20.416 10.5577L22.4605 8.74039L23 8.25L22.6309 7.58654L20.8136 4.41346L20.4444 3.75L19.7346 3.98077L17.0938 4.90385C16.384 4.32332 15.6031 3.83654 14.737 3.49038L14.1975 0.75L14.0556 0H8.94444ZM10.421 1.84615H12.579L13.0333 4.24038L13.1469 4.78846L13.658 4.96154C14.6909 5.28966 15.6279 5.84495 16.4123 6.57692L16.8099 6.95192L17.321 6.77885L19.621 5.97115L20.7 7.84615L18.8827 9.49039L18.4568 9.83654L18.5988 10.3846C18.7159 10.9111 18.7691 11.4483 18.7691 12C18.7691 12.5517 18.7159 13.0889 18.5988 13.6154L18.4852 14.1635L18.8827 14.5096L20.7 16.1538L19.621 18.0288L17.321 17.2212L16.8099 17.0481L16.4123 17.4231C15.6279 18.155 14.6909 18.7103 13.658 19.0385L13.1469 19.2115L13.0333 19.7596L12.579 22.1538H10.421L9.96667 19.7596L9.85309 19.2115L9.34198 19.0385C8.3091 18.7103 7.37207 18.155 6.58765 17.4231L6.19012 17.0481L5.67901 17.2212L3.37901 18.0288L2.3 16.1538L4.11728 14.5096L4.54321 14.1635L4.40123 13.6154C4.28411 13.0889 4.23086 12.5517 4.23086 12C4.23086 11.4483 4.28411 10.9111 4.40123 10.3846L4.54321 9.83654L4.11728 9.49039L2.3 7.84615L3.37901 5.97115L5.67901 6.77885L6.19012 6.95192L6.58765 6.57692C7.37207 5.84495 8.3091 5.28966 9.34198 4.96154L9.85309 4.78846L9.96667 4.24038L10.421 1.84615ZM11.5 7.38462C9.00124 7.38462 6.95679 9.46154 6.95679 12C6.95679 14.5385 9.00124 16.6154 11.5 16.6154C13.9988 16.6154 16.0432 14.5385 16.0432 12C16.0432 9.46154 13.9988 7.38462 11.5 7.38462ZM11.5 9.23077C13.0156 9.23077 14.2259 10.4603 14.2259 12C14.2259 13.5397 13.0156 14.7692 11.5 14.7692C9.98441 14.7692 8.77407 13.5397 8.77407 12C8.77407 10.4603 9.98441 9.23077 11.5 9.23077Z" fill="black"/>
</svg>
